<svg width="25" height="25" viewBox="0 0 25 25" fill="none" xmlns="http://www.w3.org/2000/svg">
<path d="M12.5 15.6191C14.2259 15.6191 15.625 17.0191 15.625 18.7461V25H9.375V18.7461C9.375 17.0191 10.7741 15.6191 12.5 15.6191Z" fill="#6AA2F5"/>
<path d="M7.29165 18.7461V25H3.125C1.39912 25 0 23.6 0 21.8731V12.3661C-0.000244141 11.8246 0.210058 11.3043 0.586473 10.9152L9.43853 1.33942C11.0004 -0.351576 13.6366 -0.455401 15.3265 1.10749C15.4068 1.18175 15.4841 1.25909 15.5583 1.33942L24.3948 10.9121C24.7826 11.3027 25.0001 11.8311 25 12.3817V21.8731C25 23.6 23.6009 25 21.875 25H17.7084V18.7461C17.6889 15.9039 15.3956 13.5829 12.6267 13.5161C9.76514 13.447 7.31348 15.8075 7.29165 18.7461Z" fill="#6AA2F5"/>
<path d="M12.5 15.6191C14.2259 15.6191 15.625 17.0191 15.625 18.7461V25H9.375V18.7461C9.375 17.0191 10.7741 15.6191 12.5 15.6191Z" fill="#6AA2F5"/>
</svg>
